<?xml version="1.0" encoding="UTF-8" standalone="no"?>
<!DOCTYPE svg PUBLIC "-//W3C//DTD SVG 1.1//EN"
 "http://www.w3.org/Graphics/SVG/1.1/DTD/svg11.dtd">
<!-- Generated by graphviz version 2.38.0 (20140413.2041)
 -->
<!-- Title: G Pages: 1 -->
<svg width="187pt" height="171pt"
 viewBox="0.00 0.00 187.00 171.00" xmlns="http://www.w3.org/2000/svg" xmlns:xlink="http://www.w3.org/1999/xlink">
<g id="graph0" class="graph" transform="scale(1 1) rotate(0) translate(4 167)">
<title>G</title>
<polygon fill="white" stroke="none" points="-4,4 -4,-167 183,-167 183,4 -4,4"/>
<g id="clust1" class="cluster"><title>cluster_0</title>
<polygon fill="lightgrey" stroke="lightgrey" points="8,-8 8,-155 171,-155 171,-8 8,-8"/>
<text text-anchor="middle" x="89.5" y="-139.8" font-family="Times,serif" font-size="14.00">Cassandra cluster</text>
</g>
<!-- node1 -->
<g id="node1" class="node"><title>node1</title>
<ellipse fill="white" stroke="white" cx="48" cy="-106" rx="32.4942" ry="18"/>
<text text-anchor="middle" x="48" y="-102.3" font-family="Times,serif" font-size="14.00">node1</text>
</g>
<!-- node2 -->
<g id="node2" class="node"><title>node2</title>
<ellipse fill="white" stroke="white" cx="131" cy="-106" rx="32.4942" ry="18"/>
<text text-anchor="middle" x="131" y="-102.3" font-family="Times,serif" font-size="14.00">node2</text>
</g>
<!-- node1&#45;&gt;node2 -->
<g id="edge1" class="edge"><title>node1&#45;&gt;node2</title>
<path fill="none" stroke="black" stroke-dasharray="5,2" d="M80.7461,-106C86.6352,-106 92.5244,-106 98.4135,-106"/>
</g>
<!-- node3 -->
<g id="node3" class="node"><title>node3</title>
<ellipse fill="white" stroke="white" cx="89" cy="-34" rx="32.4942" ry="18"/>
<text text-anchor="middle" x="89" y="-30.3" font-family="Times,serif" font-size="14.00">node3</text>
</g>
<!-- node1&#45;&gt;node3 -->
<g id="edge2" class="edge"><title>node1&#45;&gt;node3</title>
<path fill="none" stroke="black" stroke-dasharray="5,2" d="M57.5093,-88.7646C64.0383,-77.6175 72.6791,-62.865 79.2576,-51.6334"/>
</g>
<!-- node3&#45;&gt;node2 -->
<g id="edge3" class="edge"><title>node3&#45;&gt;node2</title>
<path fill="none" stroke="black" stroke-dasharray="5,2" d="M98.98,-51.6334C105.719,-62.865 114.571,-77.6175 121.259,-88.7646"/>
</g>
</g>
</svg>
